<svg width="602" height="777" viewBox="0 0 602 777" fill="none" xmlns="http://www.w3.org/2000/svg">
<path fill-rule="evenodd" clip-rule="evenodd" d="M403.033 1.60693C403.353 1.60693 403.802 2.8251 403.93 4.36384C404.122 5.83846 404.507 8.53126 404.891 10.2623C405.212 12.0575 406.045 16.3532 406.75 19.8795C407.455 23.4057 408.224 26.4191 408.417 26.6114C408.609 26.8038 410.404 26.8679 412.391 26.8038C414.442 26.6755 418.48 26.1626 421.492 25.6497C424.505 25.0727 428.991 24.1751 431.555 23.534C434.119 22.9569 436.426 22.6364 436.683 22.9569C436.939 23.2134 436.747 23.8545 436.234 24.3033C435.721 24.8162 434.183 25.8421 432.837 26.5473C431.555 27.3167 429.504 28.4066 428.35 29.0478C427.261 29.753 423.864 31.6764 420.915 33.4075C417.967 35.1386 415.339 37.062 415.018 37.7032C414.698 38.2802 414.698 39.306 415.018 39.9472C415.275 40.5242 419.313 45.2045 423.992 50.3336C428.607 55.4628 432.388 59.8225 432.388 60.1431C432.388 60.3996 431.94 60.5919 431.427 60.5919C430.914 60.5919 425.466 57.835 419.377 54.5011C413.352 51.1671 407.968 48.4102 407.519 48.4102C407.135 48.4102 406.75 48.6026 406.75 48.9231C406.814 49.1796 408.417 51.103 410.404 53.2188C412.391 55.3345 415.083 59.1173 416.429 61.5536C417.839 63.99 419.633 68.2215 420.467 70.8502C421.364 73.4788 422.646 79.1209 423.351 83.3524C424.056 87.5839 424.889 94.6365 425.274 99.0604C425.786 105.6 426.107 107.203 427.068 107.908C427.773 108.421 429.055 108.549 430.465 108.293C431.683 108.1 433.927 108.036 435.401 108.293C437.452 108.549 438.413 109.126 439.247 110.473C439.887 111.434 440.593 113.486 440.913 115.089C441.169 116.692 441.874 121.116 442.387 125.027C442.9 128.938 443.797 135.092 444.374 138.811C445.079 143.491 445.464 151.121 445.656 163.816C445.848 176.318 445.656 186.897 444.951 197.476C444.374 205.939 443.797 214.594 443.605 216.71C443.413 218.826 442.964 223.698 442.644 227.609C442.323 231.52 441.746 236.136 441.426 237.867C441.041 239.663 440.336 243.83 439.759 247.164C439.182 250.498 438.285 255.435 437.772 258.063C437.26 260.692 436.362 264.731 435.849 267.039C435.273 269.347 434.119 273.835 433.222 276.977C432.324 280.119 429.184 289.223 426.299 297.173C423.351 305.123 420.21 314.163 419.313 317.369C418.415 320.575 417.005 326.024 416.108 329.551C415.275 333.077 414.057 338.847 413.48 342.373C412.903 345.9 411.878 351.093 411.237 353.914C410.596 356.735 408.929 363.082 407.647 368.019C405.404 376.354 405.212 377.636 405.212 386.292C405.148 395.524 405.212 395.652 407.263 400.076C408.481 402.577 410.339 405.846 411.493 407.449C412.711 409.052 414.185 411.488 414.89 412.899C415.595 414.309 416.493 416.746 416.877 418.349C417.326 419.951 417.967 423.093 418.351 425.401C418.736 427.709 420.018 432.774 421.172 436.621C422.325 440.468 423.543 444.956 423.992 446.559C424.376 448.162 425.402 453.227 426.235 457.779C427.132 462.331 428.286 469.319 428.799 473.166C429.376 477.013 430.209 486.117 430.786 493.362C431.299 500.607 431.876 510.673 432.068 515.802C432.324 520.931 432.901 532.856 433.414 542.409C433.927 551.962 434.632 565.362 434.952 572.222C435.273 579.083 435.721 586.328 435.914 588.251C436.106 590.174 436.747 602.292 437.26 615.179C437.772 628.066 438.477 646.659 438.798 656.532C439.118 666.406 439.567 675.51 439.759 676.728C439.952 677.947 440.4 687.756 440.721 698.527C441.041 709.298 441.618 728.917 442.003 742.125C442.323 755.332 442.9 767.899 443.285 770.014C443.669 772.13 444.054 774.502 444.566 776.746H321.503L321.183 774.951C321.054 773.989 320.285 772.451 319.58 771.425C318.875 770.463 317.145 769.117 315.734 768.412C314.324 767.706 311.248 766.809 308.812 766.488C306.441 766.103 302.339 765.526 299.711 765.206C297.083 764.885 294.327 764.436 293.622 764.308C292.916 764.116 288.302 763.218 283.366 762.257C278.431 761.359 273.367 760.077 272.15 759.436C270.932 758.859 269.522 757.512 269.073 756.486C268.368 755.012 268.368 753.858 268.881 751.101C269.265 749.177 270.547 745.715 271.637 743.471C272.919 740.971 275.162 738.15 277.341 736.098C279.264 734.303 282.982 731.418 285.545 729.623C288.109 727.891 291.186 725.776 292.404 724.942C293.622 724.173 295.16 722.57 295.865 721.416C296.634 720.198 297.147 718.21 297.147 716.607C297.147 715.133 296.442 712.312 295.544 710.26C294.647 708.208 293.493 704.233 292.981 701.412C292.404 698.591 292.019 694.616 292.019 692.629C292.019 689.295 292.211 688.782 293.75 687.628C294.775 686.858 295.801 686.281 296.185 686.346C296.506 686.346 298.236 685.127 299.967 683.589C301.698 682.114 303.941 679.357 304.966 677.562C305.928 675.703 307.146 674.164 307.53 674.164C307.979 674.164 308.94 674.933 309.71 675.895C310.415 676.921 312.145 681.281 313.619 685.704C315.029 690.128 316.632 695.321 317.209 697.245C317.786 699.168 318.683 703.336 319.26 706.541C319.837 709.747 320.542 713.786 320.862 715.517C321.183 717.249 321.759 720.582 322.08 722.891C322.465 725.199 323.49 728.597 324.387 730.456C325.285 732.251 327.336 735.265 329.002 737.124C331.053 739.24 333.425 741.035 336.053 742.253C338.296 743.215 340.668 744.048 341.373 744.048C342.078 744.048 342.783 743.728 342.975 743.407C343.167 743.086 341.95 738.791 337.335 725.135L337.206 711.029C337.142 702.951 336.694 695.129 336.245 692.757C335.796 690.449 334.835 686.73 334.002 684.422C333.233 682.114 331.694 678.524 330.669 676.408C329.579 674.292 327.528 670.83 326.054 668.714C324.58 666.598 321.888 663.136 320.029 661.085C318.17 658.969 314.068 655.378 310.927 653.006C307.338 650.378 304.325 647.492 303.044 645.569C301.89 643.838 300.993 642.107 300.993 641.786C300.993 641.466 299.647 639.606 297.98 637.683C296.249 635.759 293.173 633.067 291.058 631.656C288.943 630.182 285.61 628.258 283.687 627.361C281.764 626.399 278.431 625.181 276.316 624.539C274.201 623.962 271.444 623.193 270.227 622.873C269.009 622.552 265.932 621.847 263.497 621.27C260.997 620.693 257.408 619.795 255.485 619.218C253.562 618.641 250.934 617.551 249.716 616.782C248.498 616.012 246.96 614.602 246.319 613.704C245.678 612.678 245.229 610.755 245.229 609.088C245.229 607.1 245.742 605.369 246.832 603.638C247.729 602.228 248.691 600.946 249.075 600.753C249.396 600.561 249.716 599.856 249.716 599.15C249.716 598.445 249.203 597.676 248.562 597.483C247.986 597.227 246.832 597.227 245.999 597.483C245.229 597.676 243.563 599.343 242.345 601.074C240.935 603.125 239.653 604.279 238.82 604.279C238.115 604.279 236.384 603.574 234.974 602.677C233.564 601.779 231.128 599.856 229.59 598.317C228.052 596.842 226.193 594.342 225.424 592.739C224.719 591.136 224.078 589.02 224.014 587.994C223.95 586.905 224.655 583.635 225.68 580.621C226.642 577.544 227.795 574.338 228.308 573.376C228.949 572.094 229.718 571.581 230.936 571.581C232.218 571.581 234.077 572.799 237.538 575.813C240.166 578.121 243.178 580.429 244.268 580.942C245.294 581.455 246.64 581.84 247.152 581.84C247.665 581.84 249.267 581.391 250.678 580.878C252.216 580.365 255.741 579.98 259.459 579.916C264.65 579.916 266.958 580.237 272.598 581.904C276.444 582.994 280.61 584.404 281.956 584.981C283.815 585.75 284.712 585.815 285.481 585.302C286.058 584.917 286.635 584.019 286.763 583.378C286.892 582.737 286.315 581.519 285.481 580.814C284.648 580.044 281.572 578.121 278.559 576.582C275.547 574.979 268.945 571.966 263.817 569.786C257.215 567.029 254.203 565.426 253.37 564.272C252.408 562.798 251.831 562.605 248.562 562.605C245.422 562.605 244.204 562.221 239.781 559.72C236.961 558.117 233.179 555.553 228.244 551.257L229.27 549.077C229.846 547.859 232.603 543.692 235.359 539.845C238.115 535.998 242.281 530.933 244.653 528.625C247.537 525.804 252.665 522.085 260.676 517.148C267.15 513.109 274.777 508.749 277.598 507.403C280.418 506.057 283.623 504.005 284.712 502.851C285.802 501.697 287.02 499.581 287.404 498.171C287.789 496.76 288.43 492.849 288.814 489.515C289.199 486.181 289.968 479.834 290.481 475.41C290.994 470.986 291.699 464.511 292.019 460.984C292.34 457.458 292.788 453.868 292.981 452.97C293.173 452.073 294.07 444.571 294.968 436.301C295.865 428.03 296.89 417.643 297.211 413.219C297.788 406.744 297.724 405.077 297.019 404.372C296.378 403.731 295.608 403.666 293.622 404.243C292.211 404.628 286.571 405.141 281.123 405.333C274.072 405.59 270.163 405.462 267.663 404.885C265.74 404.436 262.856 403.41 261.253 402.641C259.651 401.807 257.087 400.012 255.485 398.666C253.882 397.255 251.575 394.242 250.357 391.998C248.178 388.023 248.114 387.702 248.114 380.842C248.114 374.559 248.37 373.02 250.293 367.057C251.511 363.339 254.139 356.799 256.19 352.439C258.305 348.144 262.022 341.219 264.586 337.052C267.086 332.949 269.714 328.397 270.291 326.986C270.932 325.575 272.085 321.985 272.79 318.972C273.56 315.958 274.906 311.534 275.803 309.034C276.636 306.534 278.559 302.559 280.033 300.058C281.443 297.558 283.687 294.095 285.033 292.364C286.315 290.569 288.045 288.518 288.878 287.748C289.712 286.979 292.019 285.632 293.942 284.799C295.865 283.901 299.454 282.875 301.954 282.491C305.159 281.978 306.825 281.337 307.787 280.311C308.556 279.542 309.902 276.272 310.863 273.13C311.889 269.989 312.786 265.501 312.978 263.192C313.171 260.884 313.171 258.127 312.914 257.102C312.466 255.242 312.337 255.178 309.774 255.627C308.299 255.883 305.8 256.396 304.197 256.717C302.595 257.102 297.98 257.358 293.942 257.422C289.904 257.422 285.481 257.102 284.135 256.781C282.853 256.396 280.546 255.178 279.072 254.024C277.598 252.934 275.867 250.818 275.098 249.408C274.393 247.997 273.688 245.561 273.56 243.958C273.367 241.586 273.688 240.56 275.29 237.996C276.38 236.329 278.495 234.085 279.969 233.059C281.507 231.969 283.879 230.494 285.289 229.853C286.699 229.212 288.43 228.058 289.135 227.289C289.84 226.519 290.737 224.403 291.058 222.608C291.699 219.467 291.955 219.082 295.544 216.774C297.66 215.427 301.377 212.799 303.877 210.939C306.312 209.144 310.927 205.49 314.132 202.797C317.273 200.168 322.336 196.129 325.349 193.885C328.361 191.641 333.553 188.435 336.886 186.768C340.219 185.166 344.321 183.499 345.988 183.114C347.718 182.729 350.154 182.537 351.436 182.793C352.782 182.986 354.64 183.627 355.538 184.204C356.499 184.781 358.55 186.191 360.024 187.345C361.563 188.435 364.255 189.718 366.049 190.102C367.78 190.551 370.216 191.321 371.305 191.769C372.459 192.282 373.805 193.436 374.318 194.398C374.831 195.424 375.856 198.95 376.689 202.284C378.099 208.183 378.099 208.824 377.523 223.121C376.946 236.585 376.753 238.06 375.407 240.432C374.638 241.842 372.972 244.599 371.754 246.523C370.28 248.959 369.575 250.818 369.575 252.421C369.575 254.473 369.895 254.986 371.498 255.819C372.523 256.332 374.574 256.781 375.984 256.781C377.394 256.781 379.51 256.332 380.599 255.819C382.073 255.114 383.612 253.319 385.727 249.857C387.393 247.164 389.38 243.445 390.149 241.714C391.047 239.534 391.688 236.265 392.072 231.456C392.329 227.545 392.905 222.801 393.226 220.877C393.546 218.954 394.444 214.466 395.149 210.939C395.918 207.413 396.815 201.899 397.136 198.758C397.52 195.616 397.969 191.962 398.097 190.744C398.225 189.525 398.674 183.883 398.995 178.241C399.379 172.599 400.148 159.071 400.725 148.108C401.238 137.144 401.943 126.501 402.199 124.385C402.52 122.27 403.353 118.359 404.058 115.73C404.827 113.101 405.917 109.19 406.494 107.075C407.199 104.51 407.455 102.202 407.135 100.15C406.814 97.7781 405.596 95.4059 401.174 88.9303C398.161 84.4424 394.059 78.9285 392.136 76.6204C390.213 74.3123 388.355 71.7478 388.034 70.8502C387.714 69.9526 387.65 68.7344 387.842 68.0933C388.034 67.5162 388.867 66.5545 389.765 66.0416C390.662 65.5287 391.367 64.5029 391.367 63.7976C391.367 62.9428 390.833 62.4085 389.765 62.1948C388.867 62.0024 388.162 61.4895 388.162 61.0407C388.162 60.656 388.996 57.5144 390.021 54.1805C391.047 50.8466 392.072 47.2562 392.329 46.1662C392.585 44.9481 392.457 43.9864 391.88 43.4734C391.431 43.0888 388.996 42.2553 386.56 41.6782C384.06 41.1012 378.74 39.9472 374.702 39.1137C370.664 38.2161 365.473 37.1261 363.165 36.6132C360.858 36.1003 354.961 34.818 350.026 33.7922C345.09 32.7664 339.706 31.7406 337.976 31.4841C336.309 31.2918 334.835 30.7788 334.643 30.4583C334.45 30.0736 334.514 29.6248 334.707 29.3042C334.899 29.0478 349 28.7272 366.049 28.5349C383.099 28.3425 397.264 27.9578 397.584 27.6373C397.841 27.3808 398.482 24.8804 398.866 22.1876C399.315 19.4948 400.02 14.8786 400.341 11.8652C400.725 8.85183 401.366 5.32555 401.751 3.97916C402.135 2.69687 402.712 1.60693 403.033 1.60693V1.60693ZM319.58 255.883C319.26 256.717 318.939 260.756 318.939 264.795C318.939 270.758 319.132 272.233 319.901 272.489C320.413 272.681 322.593 271.784 324.708 270.566C326.823 269.347 329.066 267.552 329.643 266.591C330.476 265.372 330.797 263.577 330.797 260.5C330.797 258.127 330.476 255.883 330.156 255.499C329.771 255.114 327.913 254.601 325.99 254.345C324.067 254.088 321.952 253.96 321.375 254.088C320.734 254.216 319.965 255.05 319.58 255.883Z" fill="#3C4758"/>
<path d="M478.025 263.513C480.14 264.475 480.14 264.475 482.384 262.231C483.602 261.013 485.14 259.987 485.717 259.987C486.358 259.987 487.768 261.013 488.793 262.231C489.819 263.449 491.101 264.475 491.549 264.475C491.934 264.539 492.767 264.09 493.28 263.513C493.793 262.936 494.818 262.551 495.523 262.68C496.421 262.808 496.869 263.449 496.998 264.795C497.126 265.821 496.933 267.809 496.549 269.091C495.972 271.014 495.395 271.656 493.793 272.104C492.639 272.425 490.908 272.874 489.947 273.066C488.216 273.451 488.152 273.643 487.768 278.388C487.575 281.144 487.704 288.005 488.152 293.647C488.537 299.289 488.793 308.072 488.729 313.202C488.665 318.331 488.793 323.267 489.05 324.229C489.242 325.255 489.947 326.153 490.588 326.345C491.165 326.537 494.434 325.704 497.767 324.486C502.189 322.947 504.112 321.921 504.689 320.831C505.202 319.869 505.394 318.074 505.202 316.087C505.009 314.291 504.24 311.15 503.471 309.034C502.446 306.149 502.125 303.649 502.125 299.096C502.189 293.967 502.446 292.429 503.792 289.287C504.689 287.299 506.548 283.965 507.958 281.914C509.304 279.926 511.547 277.298 512.893 276.079C514.303 274.861 516.675 273.323 518.277 272.617C520.392 271.72 521.995 271.463 524.366 271.656C526.161 271.848 528.789 272.617 530.327 273.387C531.801 274.092 534.109 275.823 535.455 277.105C536.737 278.452 539.108 281.978 540.647 284.991C543.339 290.185 543.531 290.762 543.787 296.852C543.915 300.379 543.723 305.251 543.339 307.752C542.89 310.765 541.736 314.099 539.749 318.01C538.147 321.216 536.865 324.421 536.865 325.191C536.865 326.024 537.442 327.05 538.147 327.435C539.108 328.14 540.07 328.076 542.762 327.435C545.133 326.922 546.736 326.858 548.082 327.307C549.107 327.627 551.158 328.909 552.568 330.064C553.978 331.218 556.414 333.077 558.016 334.167C559.619 335.257 562.824 337.95 565.259 340.065C567.631 342.245 569.874 343.976 570.195 343.976C570.515 343.976 571.605 343.335 572.63 342.502C573.592 341.668 574.681 340.129 575.13 339.104C575.707 337.629 575.643 336.924 575.002 335.641C574.489 334.744 573.912 333.59 573.656 333.077C573.335 332.5 573.528 331.987 574.104 331.859C574.617 331.666 575.579 330.897 576.284 330.064C576.989 329.23 577.95 328.717 578.527 328.974C579.04 329.166 580.129 330.192 580.963 331.218C582.309 332.949 582.309 333.205 581.411 335C580.77 336.347 580.642 337.373 581.027 338.334C581.347 339.168 582.821 340.706 584.36 341.796C585.962 342.95 587.885 345.13 588.846 346.926C589.808 348.657 590.769 351.67 590.962 353.593C591.346 356.543 591.09 358.081 589.423 362.89C587.821 367.634 587.5 369.686 587.5 374.43C587.5 379.175 587.949 381.804 590.064 389.497C591.474 394.626 593.077 400.525 593.654 402.641C594.23 404.756 594.935 407.065 595.192 407.77C595.448 408.475 596.346 410.655 597.115 412.578C597.884 414.502 599.679 418.413 601.025 421.234C602.627 424.504 603.524 427.26 603.524 428.735C603.524 430.082 603.076 432.069 602.563 433.095C602.05 434.121 600.384 435.788 598.909 436.685C597.371 437.647 595.192 439.25 594.038 440.404C592.564 441.814 591.987 442.968 591.987 444.315C591.987 445.341 592.308 447.264 592.628 448.482C593.013 449.7 593.718 453.611 594.294 457.138C594.807 460.664 595.256 466.114 595.256 469.319C595.256 472.525 594.935 477.077 594.551 479.578C594.166 482.078 592.948 486.63 591.859 489.836C590.128 494.837 589.936 496.055 590.385 499.132C590.705 501.056 590.897 503.941 590.962 505.544C590.962 507.211 590.513 509.198 589.872 510.16C589.231 511.25 587.244 512.66 585.129 513.622C583.078 514.52 580.706 515.61 579.809 515.994C578.912 516.379 577.437 517.597 576.476 518.687C575.45 519.777 574.361 522.021 573.912 523.816C573.463 525.996 573.335 531.254 573.592 540.486C573.784 547.859 574.297 556.514 574.681 559.72C575.066 562.926 575.963 569.401 576.668 574.146C577.758 581.07 577.886 583.314 577.309 585.494C576.732 587.674 575.899 588.764 573.399 590.623C570.9 592.547 570.066 593.572 569.81 595.304C569.554 597.035 569.81 598.06 571.092 599.792C571.925 601.01 575.643 604.985 579.296 608.511C582.95 612.101 587.372 616.269 589.167 617.808C590.897 619.346 593.782 621.783 595.512 623.193C597.179 624.604 600.576 627.425 603.011 629.412C605.383 631.464 607.562 633.772 607.755 634.541C608.011 635.439 607.69 636.849 606.985 638.068C606.28 639.222 603.909 641.402 601.601 642.876C599.294 644.415 596.922 646.146 596.346 646.723C595.705 647.364 595.192 648.518 595.192 649.288C595.192 650.121 595.961 651.66 596.922 652.75C597.948 653.84 602.499 657.622 607.05 661.149C611.6 664.675 616.023 668.265 616.728 669.099C617.497 669.932 618.459 671.279 618.843 672.048C619.356 673.138 619.356 674.164 618.843 675.895C618.394 677.626 618.394 678.844 618.843 680.062C619.356 681.345 619.933 681.793 620.958 681.665C622.112 681.537 622.561 680.768 623.458 677.37C624.035 675.061 625.06 672.112 625.701 670.766C626.342 669.484 627.368 668.394 627.881 668.394C628.393 668.394 629.996 670.189 631.406 672.305C632.816 674.42 635.957 679.293 638.328 683.012C640.764 686.794 643.328 690.513 644.097 691.346C644.866 692.116 646.789 693.27 648.391 693.783C649.993 694.36 652.301 695.257 653.519 695.77C654.737 696.283 657.493 698.591 659.608 700.899C661.723 703.143 663.966 705.131 664.607 705.323C665.312 705.516 665.697 706.221 665.697 707.503C665.697 709.17 665.12 709.811 661.402 712.184C658.967 713.722 656.083 716.03 654.993 717.313C653.839 718.595 652.365 720.775 651.66 722.057C651.019 723.404 650.314 725.263 650.058 726.225C649.865 727.25 648.135 729.43 646.34 731.161C644.481 732.892 642.302 735.521 641.469 737.06C640.7 738.599 639.61 741.484 639.097 743.407C638.585 745.331 638.136 748.536 638.136 750.46C638.136 752.383 637.687 756.294 637.174 759.115C636.662 761.936 635.764 766.103 635.187 768.412C634.675 770.72 634.29 773.412 634.611 776.426L444.888 776.746L444.375 773.733C444.119 772.002 443.606 765.014 443.285 758.153C442.965 751.293 442.388 736.675 442.004 725.776C441.619 714.876 441.042 697.822 440.722 687.948C440.401 678.075 439.824 664.675 439.504 658.135C439.119 651.596 438.671 641.914 438.542 636.657C438.35 631.4 438.03 621.975 437.389 604.6L439.696 600.433C440.978 598.125 443.414 593.508 445.08 590.174C446.811 586.84 449.375 581.07 450.785 577.352C452.259 573.633 453.989 568.76 454.759 566.452C455.464 564.144 456.938 559.4 458.027 555.873C459.053 552.347 460.912 545.295 462.13 540.165C463.347 535.036 464.822 528.625 465.334 525.868C466.296 521.124 466.296 520.867 465.078 519.008C464.373 517.982 463.027 516.7 462.065 516.187C461.04 515.738 459.117 515.161 457.707 514.904C456.297 514.712 454.63 514.007 453.925 513.366C453.284 512.789 452.451 511.571 452.131 510.673C451.746 509.711 451.49 501.569 451.554 490.477C451.618 478.424 452.002 469.191 452.579 464.19C453.413 457.715 453.413 456.304 452.707 455.214C452.195 454.509 450.464 452.778 448.798 451.367C447.003 449.893 445.337 447.713 444.76 446.238C444.119 444.443 443.926 442.584 444.183 440.147C444.375 438.224 444.76 434.89 444.952 432.774C445.337 429.504 445.144 428.415 443.734 425.401C442.901 423.478 441.939 421.106 441.747 420.08C441.555 419.118 441.939 416.169 442.645 413.412C443.35 410.655 444.952 405.526 446.17 402C447.452 398.473 449.054 393.985 449.823 392.062C450.592 390.138 453.413 383.791 456.105 377.957C460.848 367.827 461.104 367.121 461.809 360.518C462.194 356.671 462.963 352.696 463.476 351.67C463.988 350.644 466.232 348.08 468.411 346.092C470.59 344.04 474.885 339.937 478.025 336.924C482.127 333.013 483.794 330.961 483.986 329.551C484.178 328.525 484.05 315.381 483.345 273.13L480.14 273.387C477.833 273.515 476.615 273.323 475.846 272.553C474.949 271.784 474.692 270.502 474.692 267.36C474.692 265.052 475.013 263.064 475.333 262.872C475.654 262.68 476.936 263 478.025 263.513Z" fill="#343D4B"/>
<path fill-rule="evenodd" clip-rule="evenodd" d="M403.674 0.0684181C403.994 0.388989 404.507 2.50475 404.827 4.81286C405.148 7.12097 405.404 9.5573 405.404 10.2626C405.34 11.096 405.148 10.9037 404.827 9.62142C404.571 8.53148 404.122 6.3516 403.93 4.68463C403.738 2.95355 403.353 1.60716 403.033 1.60716C402.776 1.60716 402.264 2.82532 401.815 4.29995C401.366 5.83869 400.853 7.63388 400.725 8.33914C400.533 9.04439 400.469 8.46736 400.597 7.05685C400.725 5.64634 401.366 3.33824 402.007 1.99184C402.648 0.581331 403.417 -0.252152 403.674 0.0684181ZM335.796 28.6633C339.129 28.7274 339.322 28.7915 336.95 28.9839C334.707 29.1762 334.194 29.4327 334.515 30.202C334.771 30.715 334.643 31.0996 334.322 31.0996C334.002 31.0996 333.104 30.8432 332.399 30.4585C331.694 30.1379 331.246 29.5609 331.438 29.1762C331.694 28.8556 333.617 28.5992 335.796 28.6633ZM418.287 34.9465C418.48 34.9465 417.839 35.6517 416.813 36.5493C415.852 37.4469 415.083 38.3445 415.083 38.6651C415.083 38.9216 415.531 39.8192 416.108 40.7168C416.685 41.6144 418.672 43.9225 423.735 49.3722L420.338 46.1665C418.48 44.3713 416.365 41.999 415.659 40.9091C414.698 39.178 414.57 38.5369 415.147 37.5111C415.595 36.8699 416.365 35.9723 416.941 35.6517C417.518 35.2671 418.095 34.9465 418.287 34.9465ZM407.391 48.4104C407.712 48.4104 409.763 49.2439 411.878 50.3339C413.993 51.4238 415.724 52.3855 415.724 52.5779C415.724 52.7702 414.89 52.5137 413.865 52.1291C412.775 51.6803 411.814 51.4879 411.621 51.8085C411.365 52.0649 411.557 52.8984 411.942 53.7319C412.391 54.5654 411.557 54.0525 409.699 52.2573C408.096 50.6544 406.75 49.1798 406.75 48.9234C406.75 48.6028 407.071 48.4104 407.391 48.4104ZM423.223 49.3722L428.094 54.1807C430.786 56.8094 432.965 59.5022 433.029 60.1433C433.029 60.8486 432.581 61.2333 431.555 61.1692C430.594 61.105 430.466 61.0409 431.235 60.8486C431.876 60.7204 432.388 60.3998 432.388 60.1433C432.388 59.8228 430.337 57.3223 427.838 54.5013L423.223 49.3722ZM415.403 58.9893C415.98 59.6945 417.454 62.3232 418.608 64.7595C419.762 67.1959 420.915 70.081 421.108 71.171C421.3 72.2609 420.851 71.3633 420.018 69.2475C419.185 67.1318 417.582 63.6696 416.429 61.5538C415.275 59.4381 414.826 58.284 415.403 58.9893ZM423.735 82.0703C424.184 84.1861 424.569 86.7507 424.569 87.8406C424.505 88.9305 424.12 87.7124 423.671 85.276C423.223 82.8397 422.838 80.211 422.838 79.5058C422.838 78.8005 423.223 79.9546 423.735 82.0703ZM442.772 125.668L443.285 128.232C443.541 129.643 443.797 131.502 443.797 132.4C443.733 133.875 443.669 133.81 443.221 132.079C442.964 131.054 442.772 129.13 442.772 127.912V125.668ZM444.567 136.888C444.823 138.491 445.079 140.799 445.015 142.017C445.015 143.876 444.887 143.684 444.502 141.055C444.246 139.324 443.99 136.952 443.99 135.926C444.054 134.516 444.182 134.772 444.567 136.888ZM363.101 188.5C363.998 188.756 365.729 189.397 366.947 189.846C368.229 190.295 368.806 190.68 368.229 190.68C367.716 190.744 366.306 190.423 365.024 190.038C363.806 189.59 362.524 189.013 362.14 188.692C361.755 188.243 362.076 188.179 363.101 188.5ZM445.015 197.989C445.143 198.053 445.079 201.579 444.887 205.811C444.631 210.042 444.31 213.376 444.182 213.184C443.99 212.991 444.054 209.465 444.374 205.362C444.631 201.258 444.951 197.924 445.015 197.989ZM307.659 255.691L310.094 255.563C311.697 255.499 312.594 255.82 312.786 256.461C312.978 256.974 313.107 259.218 312.914 265.437L312.145 256.461L307.659 255.691ZM295.352 403.603C295.801 403.603 296.506 403.987 296.955 404.436C297.467 404.885 297.724 406.552 297.531 411.617L297.339 408.603C297.147 406.167 296.826 405.462 295.801 405.205C295.096 405.077 294.519 404.628 294.519 404.244C294.519 403.923 294.903 403.603 295.352 403.603ZM448.028 450.919C448.733 451.239 450.271 452.586 451.425 453.868C452.771 455.407 453.476 456.817 453.412 457.971C453.348 459.574 453.348 459.51 452.835 457.458C452.514 456.048 451.297 454.317 449.566 452.714C448.028 451.368 447.323 450.534 448.028 450.919ZM140.754 517.084C141.779 517.084 142.164 517.982 142.933 521.893C143.702 525.548 144.279 526.958 145.369 527.663C146.138 528.176 148.125 528.817 149.663 529.074C151.265 529.33 153.573 530.228 154.791 531.125C156.073 531.959 158.636 532.985 160.559 533.369C163.315 533.946 164.149 534.459 164.725 535.742C165.11 536.639 167.674 539.909 170.494 542.922C173.891 546.641 176.263 548.629 177.416 548.821C179.083 549.142 179.147 549.334 178.827 551.898C178.57 553.886 178.891 555.745 180.044 558.759C180.878 561.067 182.224 565.555 182.993 568.696C183.762 571.902 184.723 574.851 185.172 575.3C185.557 575.749 186.133 576.134 186.39 576.134C186.646 576.134 187.031 575.428 187.287 574.659C187.479 573.825 188.505 571.453 189.595 569.337C190.62 567.222 193.12 563.503 195.171 561.003C197.222 558.566 199.209 555.553 199.593 554.271C200.17 552.54 200.106 551.706 199.465 550.424C198.952 549.59 197.542 547.09 196.26 544.974C194.979 542.858 193.568 539.589 193.184 537.601C192.799 535.678 192.671 532.792 192.928 531.19C193.12 529.651 193.953 527.15 194.722 525.74C195.684 524.073 197.158 522.662 199.017 521.701C201.196 520.611 202.606 520.29 204.785 520.547C206.388 520.675 208.887 521.444 210.426 522.149C212.092 522.983 213.566 524.329 214.207 525.612C214.976 527.086 215.233 529.33 215.233 533.434C215.233 536.639 214.912 540.037 214.528 540.999C214.079 541.961 213.759 544.076 213.759 545.615C213.759 547.923 214.079 548.693 215.233 549.398C216.194 550.039 218.373 550.296 222.219 550.231C227.026 550.167 227.988 549.911 228.821 548.821C229.782 547.667 229.782 547.667 229.013 549.398C228.244 551.193 228.308 551.385 231.385 554.078C233.18 555.617 236.897 558.182 239.717 559.72C244.14 562.221 245.358 562.605 248.562 562.605C251.767 562.605 252.408 562.798 253.37 564.272C254.139 565.426 257.215 567.029 263.753 569.786C268.881 571.966 275.547 574.979 278.495 576.582C281.508 578.185 284.648 580.109 285.417 580.814C286.251 581.583 286.827 582.737 286.699 583.378C286.635 584.084 286.058 584.917 285.481 585.302C284.648 585.879 283.815 585.751 281.956 584.981C280.61 584.404 276.38 583.058 272.598 581.904C266.894 580.301 264.586 579.916 259.459 579.98C255.677 579.98 252.152 580.365 250.613 580.942C249.203 581.455 247.665 581.84 247.088 581.84C246.575 581.904 245.294 581.455 244.204 580.942C243.178 580.429 240.166 578.121 237.474 575.813C234.077 572.8 232.218 571.581 230.936 571.581C229.654 571.581 228.949 572.094 228.244 573.377C227.795 574.338 226.642 577.608 225.744 580.557C224.783 583.571 224.078 586.905 224.078 587.931C224.078 589.021 224.655 591.2 225.424 592.739C226.129 594.342 227.988 596.842 229.526 598.381C231.128 599.856 233.5 601.843 234.91 602.677C236.32 603.574 238.051 604.28 238.756 604.28C239.589 604.28 240.871 603.126 242.281 601.074C243.563 599.343 245.165 597.74 245.999 597.484C246.768 597.291 247.921 597.291 248.562 597.484C249.139 597.74 249.652 598.445 249.652 599.151C249.652 599.856 249.396 600.625 249.011 600.753C248.691 600.946 247.665 602.228 246.768 603.638C245.678 605.434 245.165 607.165 245.165 609.088C245.165 610.755 245.678 612.743 246.319 613.704C246.896 614.666 248.434 616.013 249.652 616.782C250.934 617.551 253.498 618.641 255.421 619.218C257.408 619.795 260.997 620.693 263.433 621.27C265.932 621.847 268.945 622.616 270.163 622.937C271.445 623.193 274.137 623.963 276.252 624.54C278.367 625.181 281.7 626.399 283.623 627.361C285.61 628.322 288.879 630.246 290.994 631.656C293.109 633.067 296.249 635.824 297.916 637.683C299.582 639.607 300.928 641.466 300.928 641.786C300.928 642.171 301.89 643.838 303.044 645.569C304.326 647.557 307.338 650.378 310.863 653.006C314.068 655.379 318.17 659.033 319.965 661.085C321.824 663.201 324.516 666.599 325.99 668.714C327.464 670.83 329.515 674.292 330.605 676.408C331.63 678.524 333.169 682.178 333.938 684.422C334.771 686.73 335.796 690.513 336.245 692.757C336.694 695.129 337.078 703.015 337.271 725.135L340.283 733.982C341.886 738.791 343.103 743.087 342.911 743.407C342.783 743.792 342.014 744.048 341.309 744.048C340.604 744.048 338.232 743.279 336.053 742.253C333.425 741.035 330.989 739.304 329.002 737.124C327.336 735.329 325.221 732.315 324.323 730.456C323.49 728.597 322.465 725.199 322.08 722.891C321.695 720.647 321.119 717.313 320.798 715.518C320.478 713.786 319.773 709.747 319.196 706.542C318.683 703.4 317.721 699.233 317.145 697.245C316.632 695.322 314.965 690.128 313.555 685.705C312.145 681.345 310.351 676.921 309.645 675.959C308.94 674.933 307.979 674.164 307.53 674.164C307.082 674.164 305.928 675.703 304.902 677.562C303.877 679.421 301.634 682.114 299.903 683.653C298.172 685.128 296.506 686.346 296.121 686.346C295.801 686.346 294.711 686.923 293.75 687.628C292.147 688.782 291.955 689.359 291.955 692.629C291.955 694.616 292.404 698.591 292.917 701.412C293.429 704.234 294.583 708.209 295.48 710.26C296.378 712.312 297.083 715.133 297.083 716.672C297.083 718.275 296.57 720.262 295.801 721.48C295.096 722.634 293.557 724.173 292.34 725.007C291.186 725.776 288.109 727.892 285.481 729.623C282.918 731.418 279.2 734.303 277.277 736.162C275.098 738.15 272.919 741.035 271.637 743.535C270.483 745.779 269.201 749.177 268.881 751.101C268.304 753.858 268.368 755.076 269.009 756.487C269.458 757.512 270.868 758.859 272.085 759.5C273.367 760.077 278.367 761.359 283.302 762.321C288.238 763.219 293.75 764.244 295.48 764.565C297.275 764.885 301.313 765.527 304.454 765.911C307.659 766.296 311.248 766.937 312.466 767.194C313.748 767.514 315.67 768.348 316.824 769.053C317.978 769.758 319.324 770.976 319.837 771.81C320.349 772.579 320.926 774.054 321.439 776.747H0L8.33242 772.707C12.9473 770.463 19.2928 767.642 22.4334 766.36C25.6382 765.078 29.9326 763.731 32.0478 763.347C34.1629 762.962 38.7778 762.385 42.303 762.064C46.0206 761.744 49.0972 761.103 49.5458 760.654C50.0586 760.141 50.5714 757.769 50.7636 755.268C50.9559 752.832 51.5969 749.819 52.2379 748.536C52.8788 747.318 55.0581 744.882 57.1732 743.087C59.2243 741.291 62.3649 738.727 64.0955 737.316C65.8261 735.906 71.2742 730.905 76.2096 726.096C81.0808 721.352 86.2726 715.71 87.6827 713.594C89.1569 711.478 90.6952 708.657 91.1438 707.375C91.8489 705.323 91.8489 704.618 91.0797 702.887C90.567 701.733 89.1569 699.361 87.875 697.566C86.5931 695.835 83.901 691.988 81.9141 689.103C79.863 686.153 77.5556 682.563 76.7864 681.088C75.9532 679.55 75.3122 677.241 75.3122 675.767C75.3122 674.356 75.8891 670.317 76.5301 666.791C77.2351 663.265 78.1324 659.097 78.517 657.494C78.9657 655.956 79.6066 653.07 79.9271 651.083C80.2476 649.159 80.7604 642.235 81.0167 635.696C81.4013 626.655 81.7859 623.386 82.6191 621.783C83.196 620.629 84.4779 619.282 85.4393 618.769C86.4008 618.321 88.9005 617.551 91.0156 617.167C93.1308 616.782 96.5919 616.461 98.7071 616.461C100.822 616.461 104.283 616.013 106.399 615.435C108.514 614.923 111.975 613.512 114.026 612.422C116.141 611.332 118.577 609.473 119.474 608.383C120.435 607.293 121.781 605.113 122.551 603.574C123.384 602.036 124.474 598.766 125.05 596.265C125.82 593.188 125.948 591.393 125.499 590.495C125.179 589.79 124.089 589.021 123.063 588.7C121.974 588.379 120.179 587.418 118.897 586.584C117.359 585.494 116.397 584.148 115.692 582.032C114.859 579.339 114.539 578.955 112.808 578.826C111.783 578.698 110.308 578.506 109.603 578.378C108.834 578.185 107.232 576.262 105.565 573.441C103.066 569.273 102.809 568.376 103.13 566.132C103.386 564.593 106.014 559.272 109.796 552.668C113.193 546.705 117.487 539.332 119.282 536.319C121.141 533.305 123.704 530.036 125.05 528.946C126.46 527.856 129.152 526.445 131.075 525.804C133.062 525.163 135.049 524.329 135.498 523.945C136.011 523.496 136.844 522.214 137.357 520.931C137.869 519.713 138.575 518.367 138.959 517.918C139.28 517.469 140.113 517.084 140.754 517.084ZM124.409 577.865C124.217 578.826 123.448 580.173 122.743 580.878C122.038 581.583 121.461 582.609 121.461 583.122C121.461 583.699 122.551 584.597 123.897 585.238C126.076 586.264 126.396 586.328 127.742 585.43C128.512 584.853 129.729 582.866 130.434 580.878C131.268 578.57 131.524 576.967 131.204 576.262C130.883 575.621 130.178 574.915 129.601 574.659C129.024 574.402 128.127 574.146 127.614 574.146C127.101 574.146 126.268 574.595 125.691 575.108C125.114 575.685 124.538 576.903 124.409 577.865ZM94.2204 641.466C93.7076 642.556 92.6821 645.761 91.9771 648.711C91.272 651.596 90.7593 656.148 90.7593 658.777C90.7593 662.623 91.0797 664.419 92.4898 667.432C93.8358 670.51 94.2204 672.305 94.2204 676.216C94.2204 678.973 94.5409 681.409 94.8614 681.794C95.2459 682.114 96.5279 682.563 97.7457 682.819C99.4122 683.14 100.374 682.948 101.463 682.05C102.489 681.217 103.322 678.844 104.86 672.561C106.014 667.688 108.129 661.341 109.988 657.174C111.654 653.327 113.257 649.416 113.513 648.518C113.77 647.557 113.449 645.826 112.68 644.03C111.718 641.658 110.885 640.889 108.001 639.414C105.629 638.196 103.514 637.619 101.591 637.683C100.053 637.683 97.938 638.132 96.9765 638.645C96.0151 639.158 94.7973 640.44 94.2204 641.466ZM132.421 673.779C130.883 675.575 128.896 678.203 127.999 679.614C127.101 681.024 126.076 682.499 125.691 682.819C125.307 683.204 123.256 685.512 121.141 687.949C119.025 690.449 115.244 695.065 112.808 698.207C110.372 701.348 107.488 704.939 106.399 706.221C105.309 707.439 103.066 710.388 101.463 712.632C99.8608 714.941 97.297 719.429 95.8869 722.57C94.4127 725.776 92.2335 731.033 91.0156 734.303C89.7978 737.573 88.7723 740.65 88.7723 741.163C88.7723 741.804 89.4133 742.125 90.3747 742.125C91.272 742.125 92.8103 741.74 93.7718 741.227C94.7332 740.714 96.9765 740.137 98.7071 739.881C101.527 739.56 103.258 739.945 112.488 743.023C119.218 745.267 126.012 746.998 131.075 747.831C135.498 748.536 141.587 749.434 144.535 749.819C147.548 750.203 151.714 750.844 153.829 751.165C155.944 751.486 161.328 752.063 165.687 752.447L173.699 753.088C187.928 745.844 192.799 743.023 193.633 742.125C194.85 740.907 195.299 739.496 195.748 735.714C196.068 732.828 196.901 729.687 197.927 727.699C198.824 725.968 202.029 721.352 205.106 717.441C208.118 713.594 211.579 708.401 212.797 705.9C214.015 703.464 215.425 699.553 216.002 697.245C216.579 695.001 216.899 692.437 216.707 691.667C216.386 690.321 215.938 690.193 210.746 689.936C207.669 689.808 202.221 689.231 198.696 688.654C195.171 688.141 189.595 686.987 186.197 686.089C182.865 685.256 177.096 683.204 173.378 681.601C169.725 679.934 165.366 678.075 163.764 677.434C161.777 676.6 160.431 676.472 159.47 676.857C158.124 677.37 157.995 677.818 157.867 683.461C157.739 688.269 157.483 689.744 156.585 690.641C155.624 691.603 154.342 691.795 149.535 691.795C144.087 691.859 143.382 691.988 141.01 693.591C139.28 694.873 137.677 695.386 135.883 695.386C134.472 695.322 132.421 694.745 131.268 694.039C130.114 693.334 128.319 691.411 127.23 689.744C126.204 688.077 125.307 686.346 125.307 685.897C125.307 685.448 125.948 684.679 126.781 684.102C127.55 683.589 128.96 683.14 129.793 683.204C130.691 683.204 132.229 682.627 133.19 681.922C134.152 681.217 135.434 679.293 136.075 677.69C136.652 676.087 137.357 674.805 137.485 674.805C137.677 674.805 138.126 675.062 138.51 675.318C138.895 675.575 139.6 676.408 139.985 677.242C140.369 678.011 141.138 678.652 141.651 678.652C142.228 678.652 142.805 678.267 142.933 677.69C143.125 677.177 143.253 675.318 143.253 673.523C143.253 671.792 142.933 669.676 142.548 668.907C142.164 668.073 141.459 667.24 141.074 666.983C140.69 666.727 139.985 666.534 139.536 666.534C139.087 666.47 137.934 667.368 136.972 668.522C136.011 669.612 133.96 671.984 132.421 673.779ZM441.105 597.227C441.234 597.227 440.529 598.638 439.567 600.305C438.093 602.869 437.772 604.408 437.452 609.729C437.067 615.884 437.067 615.82 437.003 606.844C437.003 601.779 437.067 598.061 437.26 598.702C437.388 599.279 437.708 599.856 437.965 599.856C438.221 599.856 438.99 599.279 439.631 598.573C440.336 597.868 440.977 597.227 441.105 597.227ZM437.772 622.232C437.965 622.424 438.221 627.168 438.349 632.81C438.606 641.017 438.542 641.915 438.093 637.298C437.837 634.157 437.58 629.412 437.516 626.72C437.452 624.091 437.58 622.103 437.772 622.232ZM439.759 665.509C440.208 672.561 440.529 680.511 440.529 683.14C440.529 685.833 440.144 682.499 439.695 675.767C439.247 669.099 438.862 661.149 438.926 658.135C438.926 654.802 439.247 657.623 439.759 665.509ZM440.913 700.451C441.041 700.643 441.298 706.413 441.49 713.274C441.746 721.929 441.682 723.724 441.298 719.044C441.041 715.389 440.785 709.619 440.721 706.221C440.657 702.887 440.785 700.323 440.913 700.451ZM658.325 713.915C658.453 713.915 657.364 715.453 655.889 717.313C654.351 719.172 652.621 721.416 652.044 722.314C650.89 723.852 650.89 723.852 651.851 721.801C652.428 720.647 654.031 718.403 655.505 716.8C656.915 715.261 658.197 713.915 658.325 713.915ZM442.451 738.599C442.58 740.714 442.58 744.369 442.451 746.613C442.323 748.921 442.195 747.19 442.195 742.766C442.195 738.406 442.323 736.483 442.451 738.599ZM442.836 751.742C442.964 751.934 443.221 756.679 443.413 762.321C443.605 767.963 443.541 771.746 443.221 770.656C442.964 769.63 442.708 764.885 442.644 760.077C442.58 755.332 442.708 751.614 442.836 751.742Z" fill="#343D4B"/>
<path d="M216.899 693.334C216.835 692.052 217.028 690.834 217.348 690.642C217.668 690.385 219.143 690.193 220.681 690.193C222.219 690.193 224.527 690.706 225.873 691.411C227.667 692.309 229.142 694.04 232.026 698.592C234.141 701.926 237.089 706.221 238.564 708.145C240.038 710.068 242.089 712.505 243.114 713.595C244.14 714.684 246.64 717.057 248.627 718.852C251.383 721.416 252.28 722.699 252.28 723.981C252.28 725.327 251.319 726.674 248.563 729.302C245.806 731.931 242.794 733.855 236.577 736.868C231.962 739.112 227.026 741.548 225.488 742.318C223.95 743.087 221.899 744.433 220.937 745.331C219.976 746.229 218.886 748.344 218.374 750.14C217.861 751.871 216.899 754.051 216.13 754.884C214.848 756.295 214.592 756.359 207.734 755.974C203.824 755.782 195.427 755.269 189.018 754.82C182.608 754.371 177.16 753.794 176.84 753.473C176.583 753.217 176.776 752.576 177.288 752.127C177.801 751.614 181.839 749.306 186.262 746.998C190.684 744.626 194.658 742.254 195.107 741.612C195.556 741.035 195.876 738.855 195.876 736.804C195.876 734.496 196.389 731.867 197.286 729.559C198.119 727.636 201.068 723.083 203.824 719.493C206.644 715.903 210.041 711.222 211.387 709.107C212.733 706.991 214.592 703.08 215.425 700.451C216.322 697.822 216.963 694.617 216.899 693.334Z" fill="#3C4758"/>
<path d="M269.458 713.723C269.329 705.901 269.522 703.785 270.227 703.144C270.74 702.695 271.893 702.375 272.791 702.503C273.944 702.631 274.778 703.464 275.867 705.58C276.7 707.247 277.277 709.619 277.277 711.158C277.277 712.697 276.957 714.684 276.572 715.646C276.188 716.672 274.842 718.788 273.56 720.519C272.278 722.186 270.804 723.532 270.419 723.532C269.778 723.532 269.522 721.096 269.458 713.723Z" fill="#3C4758"/>
<path d="M244.589 745.459C247.601 744.049 250.485 742.766 250.998 742.574C251.511 742.382 252.857 742.254 253.882 742.318C255.228 742.382 255.869 742.831 255.998 743.728C256.126 744.433 255.613 746.613 254.844 748.537C254.075 750.46 253.177 752.576 252.857 753.153C252.536 753.794 252.28 754.692 252.28 755.076C252.28 755.525 251.639 756.743 249.396 759.564L244.268 758.795C241.448 758.41 237.987 758.218 236.577 758.474C234.782 758.731 233.564 758.603 232.603 757.897C231.705 757.256 231.129 756.23 231.129 755.269C231.129 754.307 231.898 752.896 232.987 751.871C234.013 750.909 235.808 749.627 236.961 749.05C238.179 748.473 241.576 746.806 244.589 745.459Z" fill="#3C4758"/>
<path d="M318.426 265.051C318.362 260.628 318.554 256.204 318.939 255.242C319.388 254.088 319.965 253.575 320.99 253.639C322.016 253.703 322.144 253.767 321.375 253.96C320.734 254.088 319.965 254.921 319.58 255.819C319.195 256.717 318.939 260.756 318.939 264.795C318.939 271.142 319.067 272.232 320.093 272.809C321.054 273.45 321.054 273.45 319.9 273.322C318.683 273.13 318.618 272.553 318.426 265.051Z" fill="#343D4B"/>
</svg>
